<svg id="Layer_1" data-name="Layer 1" xmlns="http://www.w3.org/2000/svg" viewBox="0 0 24 24"><title>Artboard 1</title><path d="M22.7,9.24H19.35l-.78.84-.73-.84h-7.2L10,10.67,9.39,9.24H3.72L1.3,14.76H4.19l.36-.88h.82l.36.88h12l.8-.86.75.86h3.4L20.28,12ZM6.5,9.87v0ZM12.74,14h-.93v-3.1L10.44,14H9.6l-1.37-3.1V14H6.31l-.37-.89H4L3.61,14h-1l1.69-4H5.68l1.6,3.74V10H8.83l1.24,2.68L11.21,10h1.54Zm8.18,0H19.71l-1.16-1.31L17.34,14H13.6V10h3.8l1.16,1.3,1.2-1.3h1.16l-1.77,2Zm-4-3.14,1,1.16-1.08,1.16H14.54v-.79h2.07v-.8H14.54v-.72h2.37ZM5,10.7l.65,1.58H4.31Z"/></svg>