<svg id="Layer_1" data-name="Layer 1" xmlns="http://www.w3.org/2000/svg" viewBox="0 0 141.76 144.99"><title>icon</title><path d="M209.2,392.19c-2.21.1-4.52.16-6.94.16-24,0-37.31-5.55-39.28-8.1V371.19c11.14,4.72,27.66,6.26,39.28,6.26,2.84,0,6-.09,9.24-.3A45.81,45.81,0,0,1,218,364.5a134.5,134.5,0,0,1-15.74.88c-24,0-37.32-5.56-39.28-8.1V344.21c11.14,4.72,27.66,6.26,39.28,6.26s28.14-1.54,39.28-6.26v3.42a45.9,45.9,0,0,1,12.08-2V303.79c0-15.56-32.28-19.72-51.36-19.72s-51.36,4.15-51.36,19.72v80.92c0,15.56,32.28,19.72,51.36,19.72,2.68,0,5.62-.08,8.69-.27A46,46,0,0,1,209.2,392.19Zm-6.94-96c22.68,0,35.78,4.95,38.84,7.64-3.06,2.7-16.15,7.64-38.84,7.64s-35.78-4.95-38.84-7.64C166.48,301.09,179.58,296.14,202.26,296.14ZM163,317.24c11.14,4.72,27.66,6.26,39.28,6.26s28.14-1.54,39.28-6.26V330.3c-2,2.54-15.24,8.1-39.28,8.1s-37.32-5.56-39.28-8.1Z" transform="translate(-150.9 -284.07)"/><path d="M255.17,354.06a37.5,37.5,0,1,0,37.5,37.5A37.5,37.5,0,0,0,255.17,354.06ZM258,411.24v2.69a2.92,2.92,0,0,1-5.84,0v-2.72a12.21,12.21,0,0,1-8.33-7.21,2.92,2.92,0,1,1,5.32-2.42l.07.16a6.39,6.39,0,0,0,5.91,3.93c3.08,0,6.4-1.76,6.4-5.62,0-1,0-4.09-7-5.7h-.11C244.45,392,243,386.24,243,383a11.33,11.33,0,0,1,9.35-11.15v-2.65a2.92,2.92,0,1,1,5.84,0v2.72a12.21,12.21,0,0,1,8.38,7.15,2.92,2.92,0,0,1-5.39,2.27,6.39,6.39,0,0,0-5.91-3.93c-3.08,0-6.4,1.76-6.4,5.62,0,1,0,4.09,7,5.7h.11c9.94,2.34,11.44,8.13,11.44,11.38A11.33,11.33,0,0,1,258,411.24Z" transform="translate(-150.9 -284.07)"/></svg>