<svg id="Layer_1" data-name="Layer 1" xmlns="http://www.w3.org/2000/svg" viewBox="0 0 24 24"><title>mastercard</title><path d="M21.58,10.49a5.92,5.92,0,1,1-5.91-5.92A5.92,5.92,0,0,1,21.58,10.49Zm-12.49,0a6.56,6.56,0,0,1,2.35-5,5.92,5.92,0,1,0,0,10.06A6.56,6.56,0,0,1,9.09,10.49ZM5.9,19.38v-1a.58.58,0,0,0-.62-.62.6.6,0,0,0-.55.28.58.58,0,0,0-.52-.28.52.52,0,0,0-.46.23v-.19H3.41v1.57h.35v-.87a.37.37,0,0,1,.38-.42c.23,0,.34.15.34.41v.87h.35v-.87a.37.37,0,0,1,.38-.42c.23,0,.35.15.35.41v.87H5.9ZM11,17.81h-.56v-.48H10.1v.48H9.78v.31h.32v.72c0,.37.14.58.55.58a.79.79,0,0,0,.43-.12L11,19l-.3.09c-.17,0-.23-.11-.23-.26v-.71H11Zm2.91,0a.47.47,0,0,0-.41.23v-.19h-.34v1.57h.34V18.5c0-.26.11-.4.34-.4l.21,0,.11-.32Zm-4.41.17a1.18,1.18,0,0,0-.64-.17c-.4,0-.65.19-.65.5s.19.41.54.46l.16,0c.19,0,.28.08.28.17s-.12.19-.36.19A.84.84,0,0,1,8.32,19l-.16.27a1.14,1.14,0,0,0,.68.2c.45,0,.72-.21.72-.51s-.21-.42-.55-.47l-.16,0c-.15,0-.27-.05-.27-.15s.11-.18.3-.18a1,1,0,0,1,.49.14Zm9.15-.17a.47.47,0,0,0-.41.23v-.19h-.34v1.57h.34V18.5c0-.26.11-.4.34-.4l.21,0,.11-.32Zm-4.4.83a.79.79,0,0,0,.84.82.83.83,0,0,0,.57-.19L15.5,19a.69.69,0,0,1-.41.14.5.5,0,0,1,0-1,.69.69,0,0,1,.41.14l.17-.28a.82.82,0,0,0-.57-.19A.8.8,0,0,0,14.26,18.6Zm3.2,0v-.78h-.34V18a.6.6,0,0,0-.5-.23.82.82,0,0,0,0,1.65.6.6,0,0,0,.5-.23v.19h.34Zm-1.27,0a.48.48,0,1,1,.48.5A.47.47,0,0,1,16.19,18.6Zm-4.12-.83a.82.82,0,0,0,0,1.65,1,1,0,0,0,.64-.22l-.17-.25a.75.75,0,0,1-.46.17.44.44,0,0,1-.47-.38h1.17V18.6A.76.76,0,0,0,12.07,17.77Zm0,.31a.39.39,0,0,1,.4.38h-.81A.4.4,0,0,1,12.06,18.08Zm8.57.52V17.18H20.3V18a.6.6,0,0,0-.5-.23.82.82,0,0,0,0,1.65.6.6,0,0,0,.5-.23v.19h.34Zm-1.27,0a.48.48,0,1,1,.48.5A.47.47,0,0,1,19.37,18.6Zm-11.54,0v-.78H7.48V18a.6.6,0,0,0-.5-.23.82.82,0,0,0,0,1.65.6.6,0,0,0,.5-.23v.19h.34Zm-1.27,0a.48.48,0,1,1,.48.5A.47.47,0,0,1,6.55,18.6Z"/></svg>