<svg id="iconmonstr" xmlns="http://www.w3.org/2000/svg" viewBox="0 0 24 24"><title>paypal</title><path id="payment-14" d="M17.57,10.86a4.49,4.49,0,0,1-.09.82,3.43,3.43,0,0,1-3.78,3h-.29a.47.47,0,0,0-.46.4l-.41,2.58a.47.47,0,0,1-.46.4H10.7a.32.32,0,0,1-.32-.37l.7-4.5a0,0,0,0,1,0,0h1.09A4.43,4.43,0,0,0,17,9.34,2.07,2.07,0,0,1,17.57,10.86ZM10.36,13c.06-.42.23-.6.7-.6h1.15c2.32,0,3.65-1.06,4.07-3.24s-1.07-3.27-3.06-3.27H9.5A.54.54,0,0,0,9,6.37c-1.17,7.52-1.51,9.44-1.54,10a.32.32,0,0,0,.32.34h2Z"/></svg>