<svg id="Layer_1" data-name="Layer 1" xmlns="http://www.w3.org/2000/svg" viewBox="0 0 24 24"><title>visa</title><path d="M10,8.94h1.67l-1,6.14H8.95Zm5,2.47c-.59-.28-.94-.47-.94-.76s.3-.53,1-.53a3.09,3.09,0,0,1,1.25.24l.15.07.23-1.33a4.33,4.33,0,0,0-1.5-.26c-1.65,0-2.82.83-2.83,2,0,.88.83,1.37,1.47,1.67s.87.49.87.76-.52.6-1,.6a3.51,3.51,0,0,1-1.58-.32l-.22-.1-.24,1.37a5.29,5.29,0,0,0,1.86.33c1.76,0,2.9-.82,2.92-2.1C16.45,12.37,16,11.84,15,11.4Zm7.3,3.68H20.78l-.2-.92H18.44l-.35.92H16.33l2.49-5.63a.83.83,0,0,1,.88-.51H21Zm-2-2.18-.39-1.77-.11-.53-.22.59-.67,1.72Zm-12.77-4L5.9,13.13l-.17-.85L5.14,9.46a.7.7,0,0,0-.76-.52H1.68l0,.13a7,7,0,0,1,1.76.67l1.49,5.33H6.68L9.32,8.94Z"/></svg>